# xmcd CD database file
#
# Track frame offsets:
#	150
#	17139
#	34189
#	56540
#	73561
#	93958
#	109650
#	124799
#
# Disc length: 2217 seconds
#
# Revision: 0
# Processed by: cddbd v1.5PL3 Copyright (c) Steve Scherf et al.
# Submitted via: CDex 1.50beta8
#
DISCID=6308a708
DTITLE=Noriko Sakai - Moments
DYEAR=2003
DGENRE=JPop
TTITLE0=碧いうさぎ
TTITLE1=Morning Glory
TTITLE2=BEACH'S WIDOW
TTITLE3=カナリア諸島にて
TTITLE4=September
TTITLE5=NATURALLY
TTITLE6=HAWAIIAN Wedding Song
TTITLE7=No End Summer
EXTD=YEAR: 2003
EXTT0=
EXTT1=
EXTT2=
EXTT3=
EXTT4=
EXTT5=
EXTT6=
EXTT7=
PLAYORDER=
